<mxfile host="app.diagrams.net" modified="2022-11-28T10:01:25.061Z" agent="5.0 (Windows NT 10.0; Win64; x64) AppleWebKit/537.36 (KHTML, like Gecko) Chrome/107.0.0.0 Safari/537.36" etag="28Ifa_1CnkROZ8elwwXd" version="20.6.0" type="github">
  <diagram id="kgpKYQtTHZ0yAKxKKP6v" name="Page-1">
    <mxGraphModel dx="1730" dy="965" grid="1" gridSize="10" guides="1" tooltips="1" connect="1" arrows="1" fold="1" page="1" pageScale="1" pageWidth="850" pageHeight="1100" math="0" shadow="0">
      <root>
        <mxCell id="0" />
        <mxCell id="1" parent="0" />
        <mxCell id="KwYkT5dYBrba-oaxghys-10" value="Object" style="html=1;" vertex="1" parent="1">
          <mxGeometry x="70" y="120" width="110" height="50" as="geometry" />
        </mxCell>
        <mxCell id="KwYkT5dYBrba-oaxghys-11" value="Object" style="html=1;" vertex="1" parent="1">
          <mxGeometry x="315" y="120" width="110" height="50" as="geometry" />
        </mxCell>
        <mxCell id="KwYkT5dYBrba-oaxghys-12" value="Object" style="html=1;" vertex="1" parent="1">
          <mxGeometry x="590" y="120" width="110" height="50" as="geometry" />
        </mxCell>
        <mxCell id="KwYkT5dYBrba-oaxghys-16" value="" style="endArrow=none;dashed=1;html=1;rounded=0;" edge="1" parent="1" source="KwYkT5dYBrba-oaxghys-10">
          <mxGeometry width="50" height="50" relative="1" as="geometry">
            <mxPoint x="125" y="220" as="sourcePoint" />
            <mxPoint x="125" y="884.6666463216146" as="targetPoint" />
          </mxGeometry>
        </mxCell>
        <mxCell id="KwYkT5dYBrba-oaxghys-17" value="" style="endArrow=none;dashed=1;html=1;rounded=0;" edge="1" parent="1" source="KwYkT5dYBrba-oaxghys-11">
          <mxGeometry width="50" height="50" relative="1" as="geometry">
            <mxPoint x="370" y="220" as="sourcePoint" />
            <mxPoint x="370" y="240.71067811865476" as="targetPoint" />
          </mxGeometry>
        </mxCell>
        <mxCell id="KwYkT5dYBrba-oaxghys-18" value="" style="rounded=0;whiteSpace=wrap;html=1;" vertex="1" parent="1">
          <mxGeometry x="360" y="240" width="20" height="130" as="geometry" />
        </mxCell>
        <mxCell id="KwYkT5dYBrba-oaxghys-20" value="" style="endArrow=none;dashed=1;html=1;rounded=0;exitX=0.5;exitY=1;exitDx=0;exitDy=0;" edge="1" parent="1" source="KwYkT5dYBrba-oaxghys-12">
          <mxGeometry width="50" height="50" relative="1" as="geometry">
            <mxPoint x="380" y="180" as="sourcePoint" />
            <mxPoint x="645" y="270" as="targetPoint" />
          </mxGeometry>
        </mxCell>
        <mxCell id="KwYkT5dYBrba-oaxghys-21" value="" style="rounded=0;whiteSpace=wrap;html=1;" vertex="1" parent="1">
          <mxGeometry x="630" y="270" width="30" height="60" as="geometry" />
        </mxCell>
      </root>
    </mxGraphModel>
  </diagram>
</mxfile>
